<svg width="208" height="18" viewBox="0 0 208 18" fill="none" xmlns="http://www.w3.org/2000/svg">
<path d="M126.4 12.3626C126.4 13.373 126.2 14.3834 125.7 15.1693C125.2 15.9552 124.5 16.6289 123.6 17.1902C122.6 17.6393 121.5 17.9761 120.1 17.9761C118.9 17.9761 117.8 17.8638 116.7 17.527C115.6 17.1902 114.7 16.7411 114 16.1798L116.2 13.2607C116.6 13.4853 117.1 13.7098 117.6 13.9344C118.5 14.2712 119.3 14.3834 120.1 14.3834C121.6 14.3834 122.5 13.9344 122.5 13.0362C122.5 12.5871 122.3 12.2503 121.8 11.9135C121.4 11.6889 120.6 11.4644 119.7 11.1276C118.6 10.903 117.7 10.5662 117 10.2294C116.3 9.8926 115.7 9.44352 115.1 8.76989C114.6 8.09627 114.3 7.08583 114.3 5.96312C114.3 4.8404 114.5 3.94224 115 3.15634C115.5 2.37044 116.2 1.69681 117.1 1.13546C118.1 0.686375 119.2 0.349562 120.6 0.349562C121.6 0.349562 122.5 0.461833 123.4 0.798646C124.4 1.02319 125.2 1.47227 125.8 1.92136L123.5 4.95268C122.5 4.50359 121.4 4.16678 120.5 4.16678C119.7 4.16678 119.1 4.27905 118.7 4.61586C118.3 4.8404 118.1 5.28949 118.1 5.73857C118.1 6.18766 118.3 6.52447 118.8 6.74901C119.2 6.97356 120 7.1981 120.9 7.53491C121.8 7.75945 122.7 8.09627 123.6 8.43308C124.3 8.76989 124.9 9.21898 125.5 9.8926C126.1 10.2294 126.4 11.2399 126.4 12.3626ZM208 12.3626C208 13.373 207.8 14.3834 207.3 15.1693C206.8 15.9552 206.1 16.6289 205.2 17.1902C204.2 17.6393 203.1 17.9761 201.7 17.9761C200.5 17.9761 199.4 17.8638 198.3 17.527C197.2 17.1902 196.3 16.7411 195.6 16.1798L197.8 13.2607C198.2 13.4853 198.7 13.7098 199.2 13.9344C200.1 14.2712 200.9 14.3834 201.7 14.3834C203.2 14.3834 204.1 13.9344 204.1 13.0362C204.1 12.5871 203.9 12.2503 203.4 11.9135C203 11.6889 202.2 11.4644 201.3 11.1276C200.4 10.903 199.5 10.5662 198.6 10.2294C197.9 9.8926 197.3 9.44352 196.7 8.76989C196.2 8.09627 195.9 7.08583 195.9 5.96312C195.9 4.8404 196.1 3.94224 196.6 3.15634C197.1 2.37044 197.8 1.69681 198.7 1.13546C199.7 0.686375 200.8 0.349562 202.2 0.349562C203.2 0.349562 204.1 0.461833 205 0.798646C206 1.02319 206.8 1.47227 207.4 1.92136L205.1 4.95268C204.1 4.50359 203 4.16678 202.1 4.16678C201.3 4.16678 200.7 4.27905 200.3 4.61586C199.9 4.8404 199.7 5.28949 199.7 5.73857C199.7 6.18766 199.9 6.52447 200.4 6.74901C200.8 6.97356 201.6 7.1981 202.5 7.53491C203.4 7.75945 204.3 8.09627 205.2 8.43308C205.9 8.76989 206.5 9.21898 207.1 9.8926C207.8 10.2294 208 11.2399 208 12.3626ZM27.4 6.74901C27.4299 7.8795 27.1609 8.99461 26.627 9.95368C26.0931 10.9128 25.3182 11.6728 24.4 12.138C23.4 12.5871 22.3 12.9239 21 12.9239H18.5V17.4148H14.4V0.349562H21C22.3 0.349562 23.4 0.574104 24.4 1.13546C25.4 1.58454 26.1 2.37044 26.6 3.38088C27.1 4.39132 27.4 5.51403 27.4 6.74901ZM23.2 6.74901C23.2 5.96312 23 5.40176 22.5 4.95268C22.1 4.50359 21.5 4.27905 20.6 4.27905H18.3V9.33125H20.6C21.4 9.33125 22.1 9.10671 22.5 8.65762C23 8.32081 23.2 7.64718 23.2 6.74901ZM40.6 13.8221V17.527H29.1V0.574104H40.4V4.27905H33.2V7.1981H38.9V10.7908H33.1V13.9344L40.6 13.8221ZM56.3 0.574104V17.527H52.9L46.5 8.43308V17.527H42.4V0.574104H45.8L52.2 9.66806V0.574104H56.3ZM82.5 13.7098V17.527H72.2V0.461833H76.3V13.5975L82.5 13.7098ZM100.2 17.527H95.9L94.8 14.2712H88.7L87.6 17.527H83.4L89.8 0.574104H93.9L100.2 17.527ZM93.6 10.6785L91.8 5.28949L89.9 10.6785H93.6ZM113.1 12.3626C113.1 13.373 112.9 14.3834 112.4 15.1693C111.9 15.9552 111.2 16.6289 110.3 17.1902C109.3 17.6393 108.2 17.9761 106.8 17.9761C105.6 17.9761 104.5 17.8638 103.4 17.527C102.3 17.1902 101.4 16.7411 100.7 16.1798L102.9 13.2607C103.3 13.4853 103.8 13.7098 104.3 13.9344C105.2 14.2712 106 14.3834 106.8 14.3834C108.3 14.3834 109.2 13.9344 109.2 13.0362C109.2 12.5871 109 12.2503 108.5 11.9135C108.1 11.6889 107.3 11.4644 106.4 11.1276C105.3 10.903 104.4 10.5662 103.7 10.2294C103 9.8926 102.4 9.44352 101.8 8.76989C101.3 8.09627 101 7.08583 101 5.96312C101 4.8404 101.2 3.94224 101.7 3.15634C102.2 2.37044 102.9 1.69681 103.8 1.13546C104.8 0.686375 105.9 0.349562 107.3 0.349562C108.3 0.349562 109.2 0.461833 110.1 0.798646C111.1 1.02319 111.8 1.47227 112.5 1.92136L110.2 4.95268C109.2 4.50359 108.1 4.16678 107.2 4.16678C106.4 4.16678 105.8 4.27905 105.4 4.61586C105 4.8404 104.8 5.28949 104.8 5.73857C104.8 6.18766 105 6.52447 105.5 6.74901C105.9 6.97356 106.7 7.1981 107.6 7.53491C108.5 7.75945 109.4 8.09627 110.3 8.43308C111 8.76989 111.6 9.21898 112.2 9.8926C112.8 10.2294 113.1 11.2399 113.1 12.3626ZM12.6 8.99443C12.5947 10.6349 12.1864 12.2419 11.4199 13.6385C10.6534 15.0351 9.55853 16.1672 8.2558 16.9101C6.95307 17.653 5.49301 17.9779 4.03638 17.8491C2.57974 17.7202 1.18303 17.1426 0 16.1798L2.7 12.5871C3.26494 12.9884 3.91458 13.2144 4.58266 13.2419C5.25075 13.2694 5.91338 13.0975 6.50298 12.7437C7.09258 12.3899 7.58806 11.8668 7.93889 11.2279C8.28971 10.589 8.48333 9.85704 8.5 9.1067C8.48333 8.35637 8.28971 7.62442 7.93889 6.9855C7.58806 6.34657 7.09258 5.82354 6.50298 5.46974C5.91338 5.11594 5.25075 4.94402 4.58266 4.97153C3.91458 4.99903 3.26494 5.22497 2.7 5.6263L0 2.03363C1.3 0.910917 3 0.349562 4.6 0.349562C9.1 0.23729 12.6 4.16678 12.6 8.99443ZM67.9 12.5871L70.6 16.0675C69.3 17.1902 67.6 17.7516 66 17.7516C61.6 17.7516 58 13.8221 58 8.88216C58.0053 7.24172 58.4136 5.63473 59.1801 4.23811C59.9466 2.84149 61.0415 1.70941 62.3442 0.966505C63.6469 0.223602 65.107 -0.101308 66.5636 0.027546C68.0203 0.1564 69.417 0.734021 70.6 1.69681L67.9 5.40176C67.3351 5.00043 66.6854 4.77449 66.0173 4.74699C65.3493 4.71948 64.6866 4.8914 64.097 5.2452C63.5074 5.599 63.0119 6.12203 62.6611 6.76095C62.3103 7.39987 62.1167 8.13183 62.1 8.88216C62.1 11.1276 63.8 13.0362 65.9 13.0362C66.7 13.2607 67.3 13.0362 67.9 12.5871ZM141.5 17.527L138.3 12.2503C139.3 11.8012 139.9 11.0153 140.4 10.1171C140.925 9.11283 141.201 7.96953 141.201 6.80515C141.201 5.64077 140.925 4.49747 140.4 3.49315C139.9 2.48271 139.1 1.80909 138.2 1.24773C137.2 0.798646 136.1 0.461833 134.8 0.461833H128.2V17.4148H132.3V12.9239H134.2L136.9 17.4148L141.5 17.527ZM132.2 4.27905H134.6C135.4 4.27905 136.1 4.50359 136.5 4.95268C136.9 5.40176 137.2 6.07539 137.2 6.74901C137.2 7.53491 137 8.09627 136.5 8.54535C136.1 8.99443 135.5 9.21898 134.6 9.21898H132.2V4.27905ZM150.7 0.23729C155.1 0.23729 158.7 4.16678 158.7 9.1067C158.7 14.0466 155.2 17.9761 150.7 17.9761C146.3 17.9761 142.7 14.0466 142.7 9.1067C142.7 4.16678 146.3 0.23729 150.7 0.23729ZM146.6 8.99443C146.6 11.4644 148.4 13.4853 150.6 13.4853C152.8 13.4853 154.6 11.4644 154.6 8.99443C154.6 6.52447 152.8 4.50359 150.6 4.50359C148.5 4.61586 146.6 6.52447 146.6 8.99443ZM167.8 0.23729C172.2 0.23729 175.8 4.16678 175.8 9.1067C175.8 14.0466 172.3 17.9761 167.8 17.9761C163.4 17.9761 159.8 14.0466 159.8 9.1067C159.8 4.16678 163.5 0.23729 167.8 0.23729ZM163.8 8.99443C163.8 11.4644 165.6 13.4853 167.8 13.4853C170 13.4853 171.8 11.4644 171.8 8.99443C171.8 6.52447 170 4.50359 167.8 4.50359C165.6 4.61586 163.8 6.52447 163.8 8.99443ZM185.7 11.3521L180.9 0.574104H177.5V17.527H181.1V10.1171L184.7 17.6393H186.8L190.4 10.1171V17.6393H194V0.574104H190.6L185.7 11.3521Z" fill="#CEE7FE"/>
</svg>
