<svg width="126" height="93" viewBox="0 0 126 93" fill="none" xmlns="http://www.w3.org/2000/svg">
<path d="M0 46.5001V93H63H126V46.5001V0.000216777H63H0V46.5001ZM115.491 6.41044C115.315 6.59391 105.138 16.8113 92.8693 29.1386C80.6007 41.4545 70.2577 51.8439 69.885 52.2108C68.1456 53.9768 66.106 55.3643 64.6048 55.8116C63.6108 56.0982 62.1614 56.0638 61.1882 55.7428C59.6973 55.2382 58.0822 54.1603 56.4774 52.5892C55.2454 51.3966 11.1609 7.10994 10.6639 6.58245L10.198 6.07788H63H115.802L115.491 6.41044ZM24.6823 28.829L42.2519 46.4886L41.9103 46.8556C41.7239 47.0505 33.7933 55.0203 24.2786 64.5611C14.7638 74.1019 6.79178 82.1175 6.55366 82.3813L6.10846 82.84V46.5116V10.1832L6.60542 10.6877C6.88496 10.9515 15.0123 19.1277 24.6823 28.829ZM119.871 64.607L119.84 82.7941L102.136 65.0083C92.4034 55.2382 84.2761 47.062 84.0794 46.8556L83.7377 46.4657L101.784 28.3359L119.84 10.1946L119.871 28.313C119.881 38.2781 119.881 54.6075 119.871 64.607ZM48.7642 53.0365C50.9591 55.2267 53.0297 57.1991 54.1479 58.1509C59.6869 62.9098 63.1242 63.7125 67.5451 61.2585C69.9367 59.9398 72.5975 57.6463 77.6914 52.5319L79.6585 50.571L80.0726 51.0182C80.3108 51.259 86.7609 57.7495 94.4223 65.4326C102.084 73.1272 110.014 81.0855 112.054 83.1381L115.771 86.865L89.4217 86.8994C74.927 86.9109 51.1765 86.9109 36.6404 86.8994L10.2084 86.865L28.2646 68.7237L46.3311 50.571L46.6935 50.9609C46.8902 51.1673 47.822 52.1076 48.7642 53.0365Z" fill="#FFD386"/>
</svg>
