<svg width="126" height="126" viewBox="0 0 126 126" fill="none" xmlns="http://www.w3.org/2000/svg">
<rect x="1" y="1" width="124" height="124" stroke="#FFD386" stroke-width="2"/>
<path d="M20.731 47.9686H38.558V105.328H20.731V47.9686ZM29.6494 19.4217C31.6941 19.4217 33.6928 20.0281 35.3928 21.1643C37.0927 22.3005 38.4175 23.9153 39.1995 25.8045C39.9815 27.6937 40.1856 29.7724 39.786 31.7777C39.3864 33.7829 38.401 35.6246 36.9545 37.0697C35.508 38.5148 33.6654 39.4985 31.6598 39.8962C29.6542 40.2939 27.5757 40.0878 25.6872 39.304C23.7987 38.5201 22.1852 37.1938 21.0506 35.4928C19.9161 33.7918 19.3115 31.7925 19.3135 29.7478C19.3161 27.0082 20.4062 24.3818 22.3443 22.4455C24.2824 20.5093 26.9099 19.4217 29.6494 19.4217ZM49.7405 47.9686H66.8293V55.8436H67.0655C69.4477 51.3351 75.2555 46.5806 83.9279 46.5806C101.981 46.5412 105.328 58.4226 105.328 73.8281V105.328H87.5011V77.4211C87.5011 70.7765 87.383 62.2223 78.2382 62.2223C69.0933 62.2223 67.538 69.4673 67.538 76.9879V105.328H49.7405V47.9686Z" fill="#FFD386"/>
</svg>
