<svg width="128" height="128" viewBox="0 0 128 128" fill="none" xmlns="http://www.w3.org/2000/svg">
<path fill-rule="evenodd" clip-rule="evenodd" d="M82.128 75.2019C81.601 75.5879 81.226 75.8929 80.822 76.1519C79.145 77.2339 77.485 78.3449 75.767 79.3579C74.679 79.9999 73.452 79.9449 72.291 79.5409C71.166 79.1509 70.046 78.7109 68.995 78.1569C67.31 77.2679 66.776 75.5829 66.253 73.8979C65.376 71.0749 66.563 68.6589 67.687 66.2239C67.895 65.7779 68.179 65.3679 68.411 64.9309C68.742 64.3059 68.556 63.9789 67.84 64.0229C67.4251 64.0484 67.0195 64.1565 66.647 64.3409C63.502 65.9399 60.765 68.0429 58.674 70.9189C57.236 72.8999 56.352 75.1269 55.763 77.4939C55.405 78.9329 54.336 79.6989 53.202 79.4479C51.606 79.0939 50.471 76.7229 51.202 75.2679C51.318 75.0359 51.421 74.7889 51.585 74.5919C53.404 72.4049 54.042 69.6999 54.871 67.0829C55.356 65.5499 55.833 64.0119 56.248 62.4589C56.45 61.7019 56.698 60.9299 56.298 60.1159C56.052 59.6109 56.46 59.1419 56.87 59.0959C57.799 58.9909 58.818 58.8519 59.672 59.1259C60.61 59.4279 60.688 60.5499 60.846 61.4309C60.94 61.9539 60.864 62.5079 60.864 63.2269C61.241 63.0539 61.511 62.9529 61.76 62.8109C63.179 62.0029 64.558 61.1189 66.018 60.3949C67.41 59.7049 68.834 60.0789 70.142 60.7239C70.802 61.0499 71.143 61.0129 71.654 60.4409C72.789 59.1679 73.97 57.9139 75.273 56.8189C76.354 55.9119 77.762 55.6429 79.17 55.7439C80.093 55.8089 81.02 55.9799 81.917 56.2079C82.965 56.4769 83.628 57.4189 83.725 58.4819C83.919 60.6439 83.056 62.4849 81.821 64.1109C78.883 67.9819 75.554 71.4659 71.34 73.9949C70.758 74.3449 70.713 74.7619 70.982 75.3039C71.394 76.1279 72.388 76.4819 73.3 76.2009C75.876 75.4089 77.87 73.6959 79.928 72.0759C81.027 71.2109 82.2 70.4209 83.187 69.4429C83.742 68.8939 84.008 68.0429 84.367 67.3079C85.734 64.5119 87.008 61.6669 88.46 58.9159C89.985 56.0219 91.692 53.2249 93.284 50.3659C93.723 49.5759 94.044 48.7189 94.402 47.8859C94.925 46.6749 95.744 45.9269 97.156 46.0539C97.414 46.0769 97.677 46.0489 97.938 46.0499C99.774 46.0529 100.775 47.6359 99.873 49.2539C99.065 50.7019 98.127 52.0769 97.216 53.4649C94.554 57.5229 91.807 61.5339 89.734 65.9379C88.7437 68.0238 87.8664 70.1616 87.106 72.3419C86.742 73.3949 86.743 74.5889 86.679 75.7249C86.639 76.4679 87.16 76.7149 87.749 76.2199C88.72 75.4029 89.596 74.4759 90.548 73.6369C91.361 72.9209 92.275 72.3179 93.046 71.5639C93.445 71.1729 93.705 70.5929 93.901 70.0529C95.328 66.1389 97.157 62.4179 99.163 58.7759C100.604 56.1609 102.098 53.5729 103.535 50.9539C104.215 49.7139 104.78 48.4099 105.472 47.1749C105.902 46.4079 106.585 45.9559 107.538 46.0559C107.848 46.0889 108.166 46.0819 108.476 46.0469C110.596 45.8039 111.26 47.9419 110.497 49.2599C109.86 50.3579 109.168 51.4239 108.474 52.4859C105.388 57.2009 102.167 61.8399 99.84 66.9969C98.925 69.0229 98.181 71.1349 97.484 73.2469C97.232 74.0119 97.303 74.8949 97.304 75.7249C97.304 76.4749 97.775 76.6989 98.371 76.1979C99.323 75.3979 100.199 74.5099 101.124 73.6739L103.341 71.7409C103.524 71.5769 103.738 71.3519 103.769 71.1309C104.349 67.0799 106.334 63.7199 108.906 60.6549C109.738 59.6619 110.571 58.6509 111.526 57.7829C113.45 56.0369 115.946 56.4439 117.393 57.8229C117.801 58.2119 118.03 58.8139 118.268 59.3499C118.764 60.4549 119.124 60.7089 120.353 60.7049C121.808 60.6999 123.265 60.6469 124.715 60.7259C125.284 60.7569 125.883 61.0099 126.388 61.3009C127.025 61.6699 126.967 62.3209 126.312 62.6199C124.462 63.4639 122.537 64.0559 120.487 64.1049C119.805 64.1219 119.51 64.3519 119.334 65.0579C118.218 69.5349 116.662 73.8169 113.28 77.1549C112.572 77.8539 111.758 78.5149 110.872 78.9449C109.198 79.7569 107.738 78.9169 106.376 77.9969C105.793 77.6082 105.263 77.1457 104.798 76.6209C104.402 76.1659 104.181 76.2099 103.821 76.6149C102.783 77.7859 101.685 78.8949 100.21 79.5229C99.32 79.9009 98.454 80.1299 97.432 79.8249C95.898 79.3649 94.51 78.7399 93.517 77.4449C93.147 76.9599 92.896 77.0099 92.461 77.3899C91.644 78.1029 90.815 78.8349 89.885 79.3779C87.984 80.4869 86.159 79.8589 84.447 78.8319C83.151 78.0589 82.235 76.9629 82.128 75.2019ZM107.648 73.0759C107.729 73.4389 107.773 73.9729 107.972 74.4409C108.144 74.8409 108.45 75.4029 108.775 75.4619C109.084 75.5189 109.607 75.0919 109.841 74.7459C110.911 73.1545 111.942 71.5374 112.933 69.8959C114.246 67.7269 114.91 65.3349 115.145 62.8269C115.181 62.3614 115.099 61.8945 114.907 61.4689C114.429 60.4259 113.945 60.3569 113.313 61.2979C112.027 63.2079 110.753 65.1319 109.603 67.1279C108.542 68.9518 107.876 70.9782 107.648 73.0759ZM79.195 59.8949C79.248 59.3189 78.985 59.1409 78.49 59.2729C78.346 59.3109 78.212 59.4139 78.094 59.5109C75.115 61.9559 72.813 64.9189 71.281 68.4629C71.213 68.6199 71.304 68.8479 71.321 69.0429C71.508 69.0009 71.75 69.0209 71.876 68.9089C72.558 68.3079 73.214 67.6799 73.872 67.0549C75.915 65.1139 77.738 63.0039 78.979 60.4439C79.069 60.2569 79.131 60.0579 79.195 59.8949ZM47.736 55.8429C47.227 55.7889 46.858 55.7399 46.487 55.7129C45.403 55.6329 44.309 55.6219 43.236 55.4669C42.368 55.3409 41.996 54.7619 41.996 53.8559L42.003 53.3879C42.048 51.7969 42.63 51.5589 44.21 51.7869C45.833 52.0209 47.529 51.9519 49.174 51.7989C51.338 51.5989 53.48 51.1519 55.638 50.8789C56.949 50.7139 58.274 50.6529 59.593 50.5849C61.32 50.4949 62.704 51.3239 63.916 52.4129C64.218 52.6829 64.331 53.3589 64.259 53.8059C64.12 54.6789 62.092 55.5849 61.272 54.7659C60.677 54.1729 59.895 53.9769 59.035 54.0789C57.411 54.2729 55.781 54.4289 54.155 54.6149C53.741 54.6619 53.583 54.8779 53.436 55.3369C53.156 56.2129 52.649 57.0209 52.207 57.8409C50.299 61.3909 48.61 65.0309 47.568 68.9369C46.9342 71.341 46.3398 73.7553 45.785 76.1789C45.664 76.7009 45.688 77.2699 45.716 77.8129C45.825 79.8829 44.694 80.1939 43.009 79.6469C42.518 79.4889 42.06 79.2239 41.588 79.0069C41.043 78.7529 40.683 78.3189 40.751 77.7279C40.911 76.3419 41.032 74.9359 41.378 73.5929C41.9949 71.1822 42.7001 68.7949 43.492 66.4359C44.225 64.2479 45.098 62.1049 45.953 59.9579C46.477 58.6389 47.08 57.3499 47.736 55.8429Z" fill="#CEE7FE"/>
<path d="M36 52.028C35.9997 50.9596 35.5751 49.9351 34.8196 49.1797C34.064 48.4243 33.0394 48 31.971 48H7.029C5.96062 48 4.93598 48.4243 4.18042 49.1797C3.42487 49.9351 3.00027 50.9596 3 52.028V76.971C3.00027 78.0395 3.42483 79.0641 4.18036 79.8196C4.93589 80.5752 5.96052 80.9997 7.029 81H31.97C33.0385 81 34.0632 80.5757 34.8189 79.8204C35.5746 79.065 35.9995 78.0405 36 76.972V52.028ZM19 73.003C19 73.952 16.886 75 15.844 75H8.636C7.595 75 7 73.952 7 73.003V52.745C7 51.796 7.595 52 8.636 52H15.844C16.886 52 19 51.796 19 52.745V73.003ZM33 55.517V64C33 65.011 31.718 66 30.705 66H23.435C22.422 66 22 65.011 22 63.999V52.797C22 51.785 22.422 52 23.436 52H30.706C31.718 52 33 51.785 33 52.797V55.517Z" fill="#CEE7FE"/>
</svg>
