<svg width="71" height="86" viewBox="0 0 71 86" fill="none" xmlns="http://www.w3.org/2000/svg">
<g clip-path="url(#clip0_125_43)">
<path d="M59.5729 11.0567V6.2C59.5729 4.55566 59.0725 2.97866 58.1817 1.81594C57.2909 0.653213 56.0827 0 54.8229 0H4.75C3.49022 0 2.28204 0.653213 1.39124 1.81594C0.500445 2.97866 0 4.55566 0 6.2V53.4233C0.00507038 60.8014 1.07952 68.1116 3.16667 74.9683C4.23014 78.0709 5.97976 80.6877 8.19092 82.4829C10.4021 84.2781 12.9738 85.1698 15.576 85.0433H44.0365C46.6408 85.1666 49.2141 84.274 51.4279 82.4795C53.6418 80.6849 55.3957 78.0699 56.4656 74.9683C58.0444 69.7945 59.0313 64.3456 59.3948 58.7967L63.5115 56.11C65.6911 54.6819 67.5231 52.49 68.8025 49.7799C70.0818 47.0698 70.758 43.9483 70.7552 40.765V28.0033C70.7476 23.9015 69.6162 19.9385 67.5653 16.8305C65.5145 13.7225 62.6796 11.6745 59.5729 11.0567ZM52.725 73.1083C51.9508 75.236 50.7096 77.0154 49.1591 78.2205C47.6086 79.4256 45.8187 80.002 44.0167 79.8767H15.576C13.7751 79.9938 11.9878 79.4138 10.4385 78.2097C8.8892 77.0055 7.64695 75.2308 6.86771 73.1083C4.9522 66.847 3.9714 60.1654 3.97813 53.4233V6.2C3.97813 5.92594 4.06153 5.66311 4.21 5.46932C4.35847 5.27553 4.55983 5.16667 4.76979 5.16667H54.8427C55.0527 5.16667 55.254 5.27553 55.4025 5.46932C55.551 5.66311 55.6344 5.92594 55.6344 6.2V53.4233C55.6348 60.1671 54.6473 66.8487 52.725 73.1083ZM66.7771 40.765C66.7895 42.9894 66.3205 45.1733 65.4242 47.0653C64.5279 48.9573 63.2406 50.4806 61.7104 51.46L59.5729 52.855V16.3267C61.6132 16.9106 63.4396 18.3864 64.7497 20.5098C66.0598 22.6332 66.775 25.277 66.7771 28.0033V40.765Z" fill="#F2FCFD"/>
</g>
<defs>
<clipPath id="clip0_125_43">
<rect width="71" height="85.0551" fill="white"/>
</clipPath>
</defs>
</svg>
