<svg width="128" height="128" viewBox="0 0 128 128" fill="none" xmlns="http://www.w3.org/2000/svg">
<path d="M76.0039 50.5879C68.3489 50.5879 64.5449 54.5839 64.5449 60.3379C64.5449 64.0419 66.3969 66.6659 68.8489 67.8669C67.6479 68.9679 66.6479 69.9309 65.7469 70.8809C64.8449 71.8329 64.2949 72.8379 64.2949 73.9399C64.2949 75.2919 64.8449 76.5449 66.4969 77.2429C64.7459 78.8969 63.7439 80.0969 63.7439 82.3499C63.7439 86.3029 67.1969 88.6059 76.2549 88.6059C84.9629 88.6059 90.0159 85.3549 90.0159 79.5989C90.0159 72.9459 84.9129 72.6949 76.2549 72.1429L71.3509 71.8429L73.0029 69.1909C73.9019 69.4409 75.3549 69.6409 76.9579 69.6409C83.2619 69.6409 87.6159 66.3889 87.6159 60.8329C87.6159 58.5309 86.4789 56.9299 85.5789 55.7779L89.9999 55.4279V50.9999H80.6089C79.4589 50.9999 78.1559 50.5879 76.0039 50.5879ZM78.2559 79.0989C80.6599 79.2489 82.5619 79.3489 82.5619 80.9529C82.5619 83.6519 78.6069 83.8549 75.7059 83.8549C72.2019 83.8549 69.6499 83.2529 69.6499 81.2519C69.6499 80.2499 70.2999 79.3999 70.9519 78.5999L78.2559 79.0989ZM76.3069 64.3869C73.0029 64.3869 71.6519 62.6839 71.6519 60.2329C71.6519 56.9799 73.7029 55.6279 76.4559 55.6279C79.3079 55.6279 81.0099 57.1799 81.0099 60.1319C81.0099 62.7359 79.1079 64.3869 76.3069 64.3869ZM99.1729 46.6849C102.075 46.6849 103.727 45.0329 103.727 42.1789C103.727 39.3289 102.075 37.7759 99.1729 37.7759C96.3199 37.7759 94.6679 39.3289 94.6679 42.1789C94.6679 45.0319 96.3199 46.6849 99.1729 46.6849ZM103 71.4549V50.9999H93.2669L92.7169 54.8959L95.3839 55.7699C95.8859 55.9189 95.9999 56.1929 95.9999 56.7429V71.4549C95.9999 72.2069 95.5779 72.3569 94.8769 72.4579L91.9999 72.8079V76.9999H107V72.8079L104.124 72.4579C103.371 72.3569 103 72.2579 103 71.4549ZM125.418 70.4149C124.216 70.8649 122.786 71.2139 121.383 71.2139C118.682 71.2139 118 70.0639 118 67.1109V54.9999H125V49.9999H118.362C117.961 49.9999 118 49.9969 118 49.6469V42.9999H113.207C112.657 47.9999 110 50.1959 106 50.6979V54.9999H110.003C110.404 54.9999 110 55.3529 110 55.6519V68.7629C110 74.4199 112.454 76.8209 118.408 76.8209C121.262 76.8209 124.515 75.8699 126.668 74.8199L125.418 70.4149ZM29.7379 38.8059C29.4245 38.4925 29.0524 38.2439 28.643 38.0743C28.2335 37.9046 27.7946 37.8173 27.3514 37.8173C26.9082 37.8173 26.4693 37.9046 26.0598 38.0743C25.6503 38.2439 25.2783 38.4925 24.9649 38.8059L20.2139 43.5569L26.2409 49.5839C26.9516 49.3419 27.716 49.3044 28.447 49.4758C29.178 49.6472 29.8461 50.0204 30.3753 50.5531C30.9044 51.0858 31.2732 51.7564 31.4397 52.4885C31.6062 53.2206 31.5636 53.9848 31.3169 54.6939L37.1259 60.5029C37.9844 60.2043 38.9188 60.2061 39.7761 60.508C40.6334 60.8099 41.3629 61.3939 41.8449 62.1645C42.327 62.935 42.5331 63.8464 42.4295 64.7494C42.326 65.6524 41.9189 66.4935 41.2749 67.1349C40.9021 67.5081 40.4594 67.8042 39.9721 68.0062C39.4848 68.2082 38.9624 68.3122 38.4349 68.3122C37.9074 68.3122 37.385 68.2082 36.8977 68.0062C36.4104 67.8042 35.9677 67.5081 35.5949 67.1349C34.4149 65.9539 33.9709 64.2209 34.5699 62.7669L28.9999 57.3499V71.6069C28.9999 71.7959 29.8949 72.0479 30.2139 72.3659C31.7819 73.9339 31.8579 76.4759 30.2889 78.0469C29.9196 78.4194 29.4802 78.7152 28.996 78.917C28.5118 79.1188 27.9924 79.2227 27.4679 79.2227C26.9433 79.2227 26.424 79.1188 25.9398 78.917C25.4556 78.7152 25.0162 78.4194 24.6469 78.0469C23.0789 76.4759 23.0979 73.9349 24.6669 72.3659C25.0549 71.9789 24.9999 71.6859 25.9999 71.4899V57.1009C24.9999 56.9049 25.0729 56.6139 24.6859 56.2249C24.1225 55.6615 23.7394 54.9432 23.5854 54.1615C23.4313 53.3798 23.5133 52.5699 23.8209 51.8349L17.8789 45.8919L2.18988 61.5809C1.87621 61.8942 1.62738 62.2663 1.4576 62.6759C1.28783 63.0855 1.20044 63.5245 1.20044 63.9679C1.20044 64.4112 1.28783 64.8503 1.4576 65.2598C1.62738 65.6694 1.87621 66.0415 2.18988 66.3549L25.0719 89.2359C25.7051 89.8683 26.5634 90.2236 27.4584 90.2236C28.3533 90.2236 29.2117 89.8683 29.8449 89.2359L52.6199 66.4599C53.2524 65.8265 53.6077 64.968 53.6077 64.0729C53.6077 63.1778 53.2524 62.3192 52.6199 61.6859L29.7379 38.8059Z" fill="#CEE7FE"/>
</svg>
